{"glyphs":{"0":{"ha":674,"x_min":4,"x_max":688,"o":"m 353 1049 q 503 1004 440 1049 q 608 888 567 960 q 668 722 649 815 q 688 531 688 629 q 665 317 688 422 q 599 129 642 213 q 493 -6 556 46 q 350 -57 431 -57 q 200 -8 265 -57 q 92 123 135 42 q 26 308 49 204 q 4 518 4 411 q 26 724 4 624 q 90 902 47 824 q 197 1028 132 981 q 350 1076 263 1076 l 353 1049 m 328 824 q 288 769 306 806 q 259 685 271 732 q 242 583 247 638 q 236 471 236 528 q 243 349 236 408 q 265 242 250 289 q 301 167 279 196 q 350 139 322 139 q 404 167 381 139 q 444 242 428 196 q 469 348 461 289 q 478 468 478 407 q 469 587 478 529 q 441 690 460 644 q 394 763 422 735 q 325 790 365 790 l 328 824 z "},"1":{"ha":369,"x_min":-32,"x_max":361,"o":"m 36 664 q 15 760 26 715 q -8 842 3 806 q -32 918 -19 882 q 13 956 -18 931 q 75 1010 43 982 q 154 1076 113 1040 l 361 1033 q 353 856 354 960 q 351 635 351 751 q 353 403 351 518 q 357 197 354 289 q 361 -8 358 90 l 68 -57 q 111 390 94 179 q 138 758 128 600 l 36 664 z "},"2":{"ha":631,"x_min":-14,"x_max":636,"o":"m -14 736 q 76 907 21 832 q 129 969 100 939 q 195 1024 158 1000 q 276 1062 232 1047 q 371 1076 319 1076 q 509 1044 457 1076 q 590 967 561 1013 q 627 875 618 922 q 636 797 636 828 q 620 686 636 742 q 578 578 604 631 q 517 478 551 526 q 449 389 483 431 q 260 204 365 292 q 404 229 333 218 q 528 247 464 239 q 636 254 592 254 l 597 -10 q 582 -10 590 -10 q 565 -8 575 -8 q 540 -8 554 -8 q 450 -10 504 -8 q 333 -17 396 -11 q 203 -31 269 -22 q 75 -57 136 -40 l -14 181 q 196 371 104 274 q 274 458 236 413 q 340 552 311 504 q 388 649 369 600 q 406 743 406 697 q 391 782 406 767 q 354 797 376 797 q 317 787 338 797 q 278 753 297 776 q 242 693 258 731 q 214 601 225 656 l -14 736 z "},"3":{"ha":654,"x_min":-6,"x_max":663,"o":"m 481 515 q 619 408 575 478 q 663 260 663 338 q 639 144 663 201 q 572 43 615 88 q 464 -29 528 -1 q 319 -57 400 -57 q 222 -45 265 -57 q 147 -14 179 -33 q 90 31 114 6 q 49 82 65 56 q -6 219 8 142 l 140 326 q 182 244 156 281 q 240 187 204 213 q 331 161 276 161 q 393 192 371 161 q 415 265 415 224 q 404 323 415 293 q 369 377 393 353 q 306 418 344 401 q 214 436 268 435 l 214 585 q 305 616 265 594 q 372 664 344 638 q 413 719 399 690 q 428 769 428 747 q 414 806 428 792 q 371 821 400 821 q 295 800 331 821 q 232 754 260 779 q 172 686 200 724 l -6 810 q 76 943 26 885 q 144 1007 106 976 q 235 1057 183 1038 q 350 1076 286 1076 q 470 1052 417 1076 q 563 987 524 1028 q 622 893 601 946 q 643 783 643 840 q 605 638 643 710 q 481 515 567 567 z "},"4":{"ha":664,"x_min":-19,"x_max":683,"o":"m 54 194 l -19 399 l 411 1076 l 618 1033 q 609 856 611 960 q 607 635 607 751 q 607 590 607 613 l 608 501 q 608 457 608 479 l 683 465 l 683 231 l 613 226 q 615 132 614 175 q 617 57 615 89 q 618 -8 617 21 l 325 -57 q 339 79 332 13 q 353 211 346 146 l 54 194 m 231 413 l 371 429 q 381 554 376 494 q 389 669 386 614 l 231 413 z "},"5":{"ha":629,"x_min":-12,"x_max":643,"o":"m 607 782 q 486 815 551 803 q 363 833 421 826 q 228 842 294 840 l 189 621 q 233 638 207 629 q 287 648 256 643 q 358 653 318 653 q 483 626 429 653 q 572 553 536 599 q 625 449 607 507 q 643 328 643 390 q 621 188 643 257 q 555 65 599 119 q 446 -23 511 11 q 294 -57 381 -57 q 155 -26 213 -57 q 60 44 97 6 q -12 146 17 89 l 110 279 q 138 241 119 258 q 178 212 156 224 q 228 193 201 200 q 281 186 254 186 q 334 194 308 186 q 380 220 360 203 q 412 265 400 238 q 424 332 424 293 q 414 385 424 364 q 388 418 404 406 q 351 436 372 431 q 307 442 331 442 q 241 435 275 442 q 179 418 207 428 q 117 394 147 408 l -12 519 q 15 656 4 585 q 31 792 25 726 q 38 912 36 857 q 39 1001 39 967 l 39 1047 q 121 1059 72 1054 q 224 1067 169 1064 q 336 1072 279 1071 q 440 1075 393 1074 q 521 1076 488 1076 l 567 1076 l 607 782 z "},"6":{"ha":618,"x_min":6,"x_max":639,"o":"m 588 863 q 443 751 504 806 q 338 643 382 696 q 445 600 392 632 q 542 523 499 568 q 612 422 585 478 q 639 306 639 367 q 619 172 639 238 q 561 56 600 107 q 466 -26 522 6 q 335 -57 410 -57 q 196 -25 257 -57 q 92 59 135 7 q 28 176 50 111 q 6 308 6 242 q 49 565 6 442 q 158 790 93 689 q 297 966 222 892 q 435 1076 372 1040 l 588 863 m 235 439 q 206 300 206 363 q 239 175 206 221 q 313 129 272 129 q 383 165 358 129 q 407 249 407 200 q 397 311 407 279 q 365 370 386 343 q 312 416 344 397 q 235 439 279 435 m 160 283 q 161 285 161 285 q 168 278 164 285 q 171 268 169 274 l 160 318 l 160 283 z "},"7":{"ha":582,"x_min":-7,"x_max":622,"o":"m -7 1076 q 131 1069 63 1071 q 263 1067 199 1067 q 381 1068 326 1067 q 475 1072 435 1069 q 563 1076 524 1074 l 622 874 q 574 776 601 836 q 518 644 547 717 q 458 492 489 572 q 397 333 426 411 q 254 -57 328 151 l -7 29 q 40 158 14 92 q 94 292 65 225 q 153 424 124 358 q 211 547 183 489 q 349 818 278 685 l -7 790 q -6 839 -6 810 l -6 963 q -7 1019 -6 994 q -7 1076 -7 1049 z "},"8":{"ha":672,"x_min":4,"x_max":688,"o":"m 186 551 q 83 658 118 592 q 49 797 49 725 q 67 900 49 850 q 124 990 86 950 q 217 1053 161 1029 q 350 1076 274 1076 l 351 1063 q 482 1040 426 1063 q 573 982 538 1018 q 626 899 608 946 q 643 803 643 853 q 606 657 643 728 q 496 546 568 586 q 641 436 594 511 q 688 275 688 361 q 665 154 688 214 q 599 48 642 94 q 493 -28 556 1 q 350 -57 431 -57 q 200 -29 265 -57 q 92 45 135 -1 q 26 150 49 92 q 4 268 4 208 q 15 353 4 311 q 49 433 26 396 q 106 500 72 469 q 186 551 140 531 m 329 906 q 287 844 300 886 q 274 756 274 801 q 278 701 274 728 q 293 653 283 674 q 317 619 303 632 q 350 607 332 607 q 388 620 371 607 q 418 654 406 633 q 437 701 431 675 q 443 754 443 728 q 437 806 443 781 q 417 850 431 831 q 381 881 403 869 q 328 893 358 893 l 329 906 m 342 439 q 300 413 318 431 q 270 369 282 394 q 252 315 258 344 q 246 257 246 286 q 252 201 246 228 q 271 155 258 175 q 303 122 283 135 q 350 110 324 110 q 395 123 375 110 q 428 158 415 136 q 449 209 442 181 q 456 268 456 238 q 449 326 456 297 q 428 379 442 356 q 392 419 414 403 q 342 439 371 435 z "},"9":{"ha":604,"x_min":-14,"x_max":619,"o":"m 28 111 q 165 220 106 165 q 268 331 224 275 q 166 385 217 346 q 75 476 115 424 q 10 591 35 529 q -14 713 -14 653 q 6 846 -14 781 q 64 962 25 911 q 159 1044 103 1013 q 290 1075 215 1075 q 429 1043 368 1075 q 533 959 490 1011 q 597 842 575 907 q 619 710 619 776 q 576 453 619 576 q 467 229 532 331 q 328 53 403 128 q 190 -57 253 -21 l 28 111 m 376 510 q 415 686 415 606 q 386 808 415 763 q 313 854 357 854 q 247 817 268 854 q 226 729 226 781 q 237 653 226 692 q 266 582 247 614 q 312 530 285 550 q 374 510 339 510 l 376 510 z "},"\u0000":{"ha":0,"x_min":0,"x_max":0,"o":""},"\r":{"ha":347,"x_min":0,"x_max":0,"o":""}," ":{"ha":363,"x_min":0,"x_max":0,"o":""},"`":{"ha":358,"x_min":-18,"x_max":376,"o":"m 222 1156 l 376 872 l 199 872 l -18 1156 l 222 1156 z "},"'":{"ha":225,"x_min":15,"x_max":208,"o":"m 78 875 q 83 903 82 890 q 85 926 85 915 q 74 986 85 960 q 50 1038 63 1013 q 26 1091 38 1064 q 15 1154 15 1118 l 208 1154 l 208 1044 q 198 975 208 1006 q 175 921 188 944 q 142 875 160 896 l 78 875 z "},"!":{"ha":354,"x_min":-4,"x_max":356,"o":"m 63 321 q 69 419 68 353 q 71 568 71 485 q 70 738 71 651 q 67 897 69 825 q 63 1063 65 982 l 356 1111 q 315 733 331 885 q 289 490 299 582 q 272 321 278 383 l 63 321 m 342 124 q 328 68 342 94 q 290 22 314 42 q 235 -10 267 1 q 168 -21 204 -21 q 101 -10 132 -21 q 46 22 69 1 q 9 68 22 42 q -4 124 -4 94 q 9 179 -4 153 q 46 226 22 206 q 101 257 69 246 q 168 268 132 268 q 235 257 204 268 q 290 226 267 246 q 328 179 314 206 q 342 124 342 153 z "},"\"":{"ha":426,"x_min":15,"x_max":411,"o":"m 78 875 q 83 903 82 890 q 85 926 85 915 q 74 986 85 960 q 50 1038 63 1013 q 26 1091 38 1064 q 15 1154 15 1118 l 208 1154 l 208 1044 q 198 975 208 1006 q 175 921 188 944 q 142 875 160 896 l 78 875 m 411 1153 l 411 1044 q 401 975 411 1006 q 378 921 390 944 q 343 875 363 896 l 281 875 q 286 903 285 890 q 288 926 288 915 q 276 986 288 960 q 253 1038 265 1013 q 229 1090 240 1063 q 218 1153 218 1117 l 411 1153 z "},"#":{"ha":851,"x_min":-6,"x_max":850,"o":"m 818 271 q 789 274 804 272 q 757 276 774 275 q 759 176 758 222 q 761 97 760 131 q 763 28 761 58 l 471 -21 q 486 133 479 58 q 500 282 493 208 l 415 282 q 417 180 417 226 q 419 99 418 133 q 422 28 421 60 l 129 -21 q 145 130 138 56 q 160 276 153 204 q 67 272 99 274 q 31 271 46 272 l -6 564 q 89 551 43 557 q 181 539 135 544 l 186 618 q 123 616 151 617 q 74 614 94 615 q 31 613 50 614 l -6 906 q 100 891 47 897 q 203 878 153 885 q 208 976 206 933 q 211 1049 210 1019 q 214 1111 213 1085 l 422 1069 q 417 972 419 1026 q 413 854 414 917 q 542 842 482 849 q 548 954 546 904 q 553 1039 550 1004 q 556 1111 554 1079 l 763 1069 q 757 958 758 1021 q 754 825 756 896 q 825 821 800 824 q 850 819 839 819 l 818 613 q 788 616 803 615 q 753 618 772 617 l 753 585 l 754 518 l 754 485 q 825 481 800 483 q 850 479 839 479 l 818 271 m 413 513 q 467 508 440 510 q 519 503 494 506 q 528 624 524 565 l 490 624 l 438 622 l 411 622 l 411 594 l 413 540 l 413 513 z "},"$":{"ha":551,"x_min":3,"x_max":542,"o":"m 188 68 q 119 63 151 64 q 60 61 88 61 q 51 137 58 96 q 35 214 43 178 q 14 300 25 257 q 130 286 81 290 q 213 282 179 282 q 265 285 244 282 q 296 294 285 289 q 311 304 307 299 q 315 315 315 310 q 311 328 315 324 q 307 333 310 331 q 156 364 222 338 q 99 392 126 375 q 51 435 72 410 q 16 495 29 461 q 3 575 3 529 q 6 676 3 614 q 26 803 10 739 q 78 925 43 868 q 176 1010 113 982 q 169 1050 174 1033 q 163 1078 165 1067 q 157 1099 160 1090 l 450 1111 q 430 1051 439 1081 q 413 994 421 1022 q 480 926 454 968 q 519 837 506 883 q 537 743 532 790 q 542 658 542 696 q 541 624 542 639 q 540 599 540 610 q 538 575 539 585 l 342 511 q 343 535 343 521 q 344 560 344 546 q 344 592 344 575 q 342 663 344 625 q 333 735 340 701 q 314 790 326 768 q 281 811 301 811 q 233 788 251 811 q 202 728 214 765 q 185 647 190 692 q 181 561 181 603 q 207 503 181 521 q 274 476 233 485 q 360 461 314 468 q 446 438 406 454 q 513 387 486 421 q 539 289 539 353 q 507 195 539 233 q 424 131 475 157 q 433 68 428 94 q 442 25 438 42 q 450 -10 446 4 l 157 -21 q 173 24 165 1 q 188 68 181 46 z "},"%":{"ha":890,"x_min":-29,"x_max":917,"o":"m 854 1032 q 740 826 797 928 q 629 628 683 724 q 525 444 575 532 q 432 279 475 356 q 240 -58 331 100 l 13 40 q 107 172 57 97 q 210 329 157 246 q 315 500 263 413 q 417 669 368 588 q 646 1074 531 864 l 854 1032 m 196 1061 q 293 1040 253 1061 q 360 986 333 1019 q 400 909 388 953 q 413 819 413 865 q 398 720 413 769 q 356 632 383 671 q 288 569 328 593 q 194 544 247 544 q 97 568 139 544 q 27 629 56 592 q -15 715 -1 667 q -29 814 -29 764 q -15 910 -29 863 q 26 993 -1 957 q 97 1051 54 1029 q 194 1074 139 1074 l 196 1061 m 179 936 q 142 882 154 921 q 129 800 129 843 q 133 753 129 775 q 146 713 138 731 q 166 684 154 694 q 194 674 178 674 q 219 685 207 674 q 239 716 231 697 q 252 758 247 735 q 257 807 257 782 q 253 850 257 829 q 239 887 249 871 q 214 913 229 903 q 178 922 199 922 l 179 936 m 701 458 q 799 438 758 458 q 865 383 839 417 q 904 305 892 349 q 917 215 917 261 q 902 116 917 165 q 860 28 888 67 q 793 -35 833 -11 q 700 -60 753 -60 q 603 -36 644 -60 q 533 25 561 -12 q 491 111 506 63 q 476 210 476 160 q 490 306 476 258 q 532 390 504 353 q 602 449 560 426 q 700 471 644 471 l 701 458 m 685 333 q 647 278 660 318 q 635 196 635 239 q 639 149 635 171 q 651 108 643 126 q 672 80 660 90 q 700 69 683 69 q 724 81 713 69 q 744 113 736 93 q 758 156 753 132 q 763 204 763 179 q 744 283 763 249 q 683 318 726 318 l 685 333 z "},"&":{"ha":757,"x_min":7,"x_max":767,"o":"m 189 515 q 65 638 103 567 q 26 783 26 710 q 48 893 26 840 q 108 987 69 946 q 200 1052 146 1028 q 321 1076 254 1076 q 436 1057 385 1076 q 526 1007 488 1038 q 594 943 565 976 q 675 810 643 885 l 497 686 q 438 754 469 724 q 374 800 410 779 q 299 821 339 821 q 256 803 269 821 q 243 757 243 785 q 253 701 243 732 q 285 642 264 671 q 335 587 306 613 q 404 544 365 561 q 446 542 425 543 q 489 539 467 540 q 484 592 486 569 q 479 622 482 614 l 679 599 q 682 581 681 592 q 685 560 683 572 q 688 533 686 549 l 735 533 q 767 535 751 533 l 767 261 l 683 276 q 652 154 674 214 q 592 48 631 94 q 494 -28 553 1 q 350 -57 435 -57 q 206 -29 269 -57 q 98 43 142 -1 q 31 144 54 88 q 7 260 7 201 q 51 408 7 338 q 189 515 96 478 m 340 161 q 393 173 371 161 q 431 206 415 185 q 457 254 446 226 q 475 313 468 282 l 314 342 q 269 296 283 322 q 254 244 254 269 q 277 186 254 211 q 340 161 300 161 z "},"(":{"ha":394,"x_min":-14,"x_max":424,"o":"m 424 1054 q 329 868 371 971 q 263 665 293 781 q 233 411 233 549 q 263 164 233 275 q 329 -28 293 53 q 424 -194 371 -121 l 364 -261 q 175 -104 258 -200 q 84 24 128 -50 q 13 195 40 99 q -14 411 -14 292 q 14 628 -14 531 q 85 801 42 725 q 175 935 128 878 q 364 1100 258 1033 l 424 1054 z "},")":{"ha":394,"x_min":-29,"x_max":410,"o":"m -29 -226 q 67 -40 25 -143 q 133 164 103 47 q 163 417 163 281 q 133 665 163 554 q 67 856 103 776 q -29 1022 25 949 l 31 1089 q 221 932 136 1028 q 312 803 268 878 q 383 633 356 729 q 410 417 410 536 q 382 200 410 297 q 311 26 354 103 q 221 -107 268 -50 q 31 -272 136 -206 l -29 -226 z "},"*":{"ha":554,"x_min":13,"x_max":543,"o":"m 396 726 l 543 701 l 468 549 l 368 613 l 406 506 l 150 506 l 188 613 l 88 549 l 13 701 l 160 726 l 13 751 l 88 904 l 188 839 l 150 947 l 406 947 l 368 839 l 468 904 l 543 751 l 396 726 z "},"+":{"ha":747,"x_min":11,"x_max":729,"o":"m 40 389 l 11 563 q 82 568 43 565 q 160 574 115 571 q 257 582 206 578 q 246 733 250 661 q 239 856 242 804 l 475 856 l 472 599 q 614 608 547 604 q 729 615 681 613 l 729 379 l 469 382 l 465 167 l 293 138 q 288 210 290 171 q 281 288 285 243 q 272 385 276 333 l 40 389 z "},",":{"ha":294,"x_min":17,"x_max":276,"o":"m 146 206 q 197 197 174 206 q 238 174 221 189 q 266 140 256 160 q 276 97 276 119 q 266 28 276 58 q 243 -26 256 -3 q 210 -72 228 -51 l 146 -72 l 146 -11 q 54 21 92 -11 q 17 97 17 53 q 54 174 17 142 q 146 206 92 206 z "},"-":{"ha":751,"x_min":14,"x_max":732,"o":"m 14 479 q 296 503 161 492 q 415 512 354 507 q 534 521 476 517 q 643 528 592 525 q 732 532 694 531 l 732 296 l 43 306 l 14 479 z "},".":{"ha":297,"x_min":19,"x_max":279,"o":"m 279 97 q 269 55 279 75 q 241 20 258 35 q 200 -3 224 6 q 149 -11 176 -11 q 57 21 94 -11 q 19 97 19 53 q 57 174 19 142 q 149 206 94 206 q 200 197 176 206 q 241 174 224 189 q 269 140 258 160 q 279 97 279 119 z "},"/":{"ha":746,"x_min":-19,"x_max":767,"o":"m 767 1032 q 655 826 710 928 q 550 628 600 724 q 455 444 500 532 q 372 279 410 356 q 208 -58 283 100 l -19 40 q 73 172 25 97 q 169 329 121 246 q 267 500 218 413 q 358 669 315 588 q 560 1074 460 864 l 767 1032 z "},":":{"ha":294,"x_min":17,"x_max":276,"o":"m 276 650 q 266 608 276 628 q 238 573 256 588 q 197 550 221 558 q 146 542 174 542 q 54 574 92 542 q 17 650 17 606 q 54 726 17 694 q 146 758 92 758 q 197 750 174 758 q 238 727 221 742 q 266 692 256 713 q 276 650 276 672 m 276 313 q 266 270 276 290 q 238 235 256 250 q 197 213 221 221 q 146 204 174 204 q 54 236 92 204 q 17 313 17 268 q 54 389 17 357 q 146 421 92 421 q 197 413 174 421 q 238 390 221 404 q 266 355 256 375 q 276 313 276 335 z "},";":{"ha":294,"x_min":17,"x_max":276,"o":"m 276 650 q 239 574 276 606 q 147 542 201 542 q 97 550 121 542 q 55 573 72 558 q 27 608 38 588 q 17 650 17 628 q 27 692 17 672 q 55 727 38 713 q 97 750 72 742 q 147 758 121 758 q 239 726 201 758 q 276 650 276 694 m 146 421 q 197 413 174 421 q 238 390 221 404 q 266 355 256 375 q 276 313 276 335 q 266 243 276 274 q 243 189 256 213 q 210 143 228 164 l 146 143 l 146 204 q 54 236 92 204 q 17 313 17 268 q 54 389 17 357 q 146 421 92 421 z "},"<":{"ha":549,"x_min":-19,"x_max":561,"o":"m 561 664 l 171 524 l 561 344 l 463 144 l 6 440 l -19 578 l 463 871 l 561 664 z "},"=":{"ha":753,"x_min":8,"x_max":744,"o":"m 8 688 q 290 711 156 700 q 410 720 349 715 q 528 729 471 725 q 638 736 586 733 q 726 740 689 739 l 726 504 l 38 514 l 8 688 m 744 264 q 463 240 597 251 q 344 232 404 236 q 226 224 283 228 q 117 216 168 219 q 26 211 65 213 l 26 447 l 715 438 l 744 264 z "},">":{"ha":547,"x_min":-14,"x_max":567,"o":"m -14 347 l 376 489 l -14 668 l 85 867 l 542 572 l 567 433 l 85 142 l -14 347 z "},"?":{"ha":585,"x_min":-24,"x_max":600,"o":"m -24 889 q 61 1000 10 951 q 170 1076 104 1042 q 328 1111 236 1111 q 433 1098 389 1111 q 508 1063 478 1085 q 556 1015 538 1042 q 584 960 574 988 q 597 907 594 932 q 600 864 600 882 q 590 790 600 825 q 563 723 579 754 q 524 666 546 692 q 481 619 503 640 q 361 532 428 569 l 481 533 l 440 306 q 401 310 422 307 q 359 312 382 311 q 308 313 336 313 q 244 310 276 313 q 185 304 213 308 l 133 544 q 247 628 197 583 q 324 715 289 667 q 360 814 360 763 q 345 843 360 833 q 308 853 331 853 q 263 844 288 853 q 215 815 238 835 q 172 765 192 794 q 142 693 153 735 l -24 889 m 493 124 q 480 68 493 94 q 443 22 467 42 q 388 -10 419 1 q 321 -21 357 -21 q 253 -10 285 -21 q 199 22 222 1 q 161 68 175 42 q 147 124 147 94 q 161 179 147 153 q 199 226 175 206 q 253 257 222 246 q 321 268 285 268 q 388 257 357 268 q 443 226 419 246 q 480 179 467 206 q 493 124 493 153 z "},"@":{"ha":1151,"x_min":1,"x_max":1172,"o":"m 586 1111 q 818 1067 711 1111 q 1004 945 925 1022 q 1128 765 1083 868 q 1172 544 1172 661 q 1151 406 1172 478 q 1093 276 1129 335 q 1008 178 1057 217 q 906 139 960 139 q 826 151 861 139 q 764 181 790 164 q 721 215 738 197 q 697 244 704 233 q 631 227 665 233 q 557 221 596 221 q 458 238 503 221 q 383 281 414 254 q 336 343 353 308 q 319 413 319 378 q 333 472 319 443 q 378 524 347 501 q 455 560 408 546 q 568 574 501 574 q 623 569 597 574 q 672 560 649 565 q 635 612 660 592 q 578 632 610 632 q 526 617 553 632 q 474 569 499 601 l 353 742 q 410 794 375 771 q 481 831 438 814 q 586 847 525 847 q 746 815 685 847 q 842 736 807 782 q 888 640 876 690 q 900 553 900 589 q 886 417 900 464 q 872 354 872 369 q 882 344 872 344 q 912 363 897 344 q 938 411 926 382 q 955 476 949 440 q 961 544 961 511 q 937 685 961 618 q 865 805 913 753 q 748 888 818 857 q 586 918 678 918 q 431 887 500 918 q 313 803 361 856 q 238 683 264 751 q 213 540 213 615 q 232 397 213 465 q 293 277 251 329 q 400 194 335 225 q 557 164 465 164 q 614 168 589 164 q 656 178 639 172 q 692 192 676 183 l 819 22 q 753 1 790 10 q 680 -14 722 -7 q 586 -21 638 -21 q 354 24 461 -21 q 169 144 247 68 q 46 324 90 221 q 1 544 1 428 q 46 765 1 661 q 169 945 90 868 q 354 1067 247 1022 q 586 1111 461 1111 m 519 403 q 531 390 519 393 q 563 386 543 386 q 627 392 593 386 q 674 400 661 397 l 674 408 q 629 416 663 411 q 567 421 596 421 q 533 417 547 421 q 519 403 519 414 z "},"A":{"ha":678,"x_min":-22,"x_max":683,"o":"m -22 585 q 11 592 -7 588 q 49 599 26 594 q 99 608 71 603 q 154 803 126 713 q 204 961 182 893 q 256 1110 231 1042 l 261 1110 l 271 1111 q 403 1090 335 1111 q 524 1032 471 1068 q 561 880 543 969 q 597 690 579 790 q 683 699 647 696 l 683 435 l 526 425 l 643 411 q 660 301 653 351 q 672 215 667 251 q 683 138 678 172 l 415 88 q 419 163 419 117 q 416 281 419 215 q 407 417 413 346 l 207 404 l 279 392 q 266 209 271 296 q 258 54 261 122 q 254 -93 256 -25 l -4 54 q 13 219 0 133 q 46 394 26 306 l 4 392 l -22 585 m 385 660 q 376 747 381 707 q 369 817 372 788 q 363 881 365 851 q 333 773 346 832 q 310 647 321 714 l 385 660 z "},"B":{"ha":626,"x_min":0,"x_max":646,"o":"m 0 1054 q 97 1083 46 1069 q 197 1103 142 1094 q 311 1111 253 1111 q 435 1094 382 1111 q 524 1050 488 1078 q 578 984 560 1022 q 596 903 596 946 q 551 760 596 835 q 414 622 506 686 q 425 625 419 624 q 440 626 432 625 q 457 626 447 626 q 515 619 482 626 q 576 588 547 611 q 626 522 606 565 q 646 407 646 479 q 623 299 646 346 q 565 217 600 251 q 490 157 531 182 q 333 89 421 113 l 272 208 q 281 129 276 165 q 288 65 285 93 q 293 8 290 33 l 0 -93 q 55 471 36 242 q 81 801 74 700 q 38 782 53 790 q 21 774 28 778 l 0 1054 m 256 833 q 248 760 250 801 q 246 669 246 718 l 246 614 q 286 670 265 639 q 324 734 307 701 q 353 797 342 767 q 365 850 365 826 q 324 878 365 878 q 265 869 299 878 q 196 849 232 861 l 256 833 m 253 460 q 254 447 254 453 q 254 433 254 440 l 258 379 q 258 372 258 376 l 260 358 q 260 351 260 356 q 313 360 285 354 q 367 376 342 365 q 408 404 392 388 q 424 444 424 421 q 408 478 424 469 q 369 488 393 488 q 310 478 342 488 q 253 460 278 469 z "},"C":{"ha":610,"x_min":-1,"x_max":610,"o":"m 331 836 q 270 813 296 836 q 228 752 244 790 q 205 665 213 714 q 197 563 197 615 q 206 451 197 507 q 229 353 214 396 q 266 283 244 310 q 314 256 288 256 q 357 281 342 256 q 381 340 372 306 q 391 411 389 375 q 393 469 393 447 l 393 493 l 608 385 q 557 182 594 271 q 518 108 540 144 q 465 42 496 71 q 393 -3 433 14 q 303 -21 353 -21 q 176 35 232 -21 q 80 180 119 90 q 19 382 40 269 q -1 608 -1 494 q 15 797 -1 707 q 67 958 32 888 q 156 1069 101 1028 q 285 1111 210 1111 q 359 1092 328 1111 q 414 1043 390 1072 l 411 1106 l 610 1111 l 590 629 l 432 622 q 428 673 432 638 q 413 744 424 708 q 383 808 403 781 q 331 836 364 836 z "},"D":{"ha":633,"x_min":-8,"x_max":636,"o":"m -8 1054 q 89 1083 38 1069 q 189 1103 133 1094 q 303 1111 244 1111 q 453 1072 390 1111 q 557 968 517 1033 q 617 819 597 903 q 636 644 636 735 q 614 447 636 544 q 550 270 592 349 q 449 142 508 192 q 317 89 390 92 q 321 56 319 69 q 322 43 322 49 l 326 8 l 33 -93 q 79 467 69 239 q 89 799 89 694 l 89 818 q 35 788 56 801 q 13 774 22 781 l -8 1054 m 288 833 q 281 760 282 801 q 279 669 279 718 q 285 487 279 583 q 297 300 290 390 q 331 320 313 304 q 366 375 350 336 q 393 481 382 414 q 404 651 404 547 q 392 755 404 714 q 360 820 381 796 q 313 855 340 844 q 256 865 286 865 q 185 856 218 865 l 288 833 z "},"E":{"ha":588,"x_min":3,"x_max":599,"o":"m 479 521 q 422 526 458 526 q 313 517 374 526 q 196 497 253 508 l 279 497 q 273 407 276 449 q 267 333 269 365 q 260 267 264 297 q 278 274 263 269 q 315 286 293 279 q 363 301 336 293 q 418 318 390 310 q 565 361 483 338 l 599 82 q 500 69 551 78 q 398 49 449 61 q 299 22 347 36 q 206 -6 250 8 q 3 -78 101 -39 q 31 47 19 -19 q 51 185 43 114 q 65 328 60 256 q 74 469 71 400 q 58 466 65 467 q 46 464 51 465 q 36 461 40 463 l 3 665 q 38 676 19 671 q 79 685 57 681 l 79 729 q 78 794 79 765 q 78 844 78 822 q 33 840 47 842 q 17 838 24 839 l 17 850 q 15 907 17 872 q 10 975 13 942 q 3 1057 7 1014 q 109 1080 49 1071 q 234 1095 169 1089 q 361 1104 299 1101 q 474 1109 424 1107 q 558 1111 525 1111 l 599 1111 l 554 806 q 378 841 467 832 q 214 850 289 850 l 206 850 l 283 819 q 285 769 285 794 q 285 721 285 744 q 374 734 332 728 q 447 744 415 740 q 517 753 485 749 l 479 521 z "},"F":{"ha":554,"x_min":-14,"x_max":611,"o":"m 35 693 q 47 866 39 789 q 63 999 54 943 q 81 1111 71 1061 q 128 1114 101 1113 q 181 1116 150 1115 q 247 1117 211 1117 q 427 1110 329 1117 q 611 1081 525 1103 q 578 990 592 1039 q 558 897 565 940 q 546 799 550 847 q 457 833 503 818 q 370 858 418 847 q 275 868 322 868 q 257 868 265 868 q 239 867 249 868 q 237 799 238 832 q 236 733 236 765 l 236 700 q 381 717 311 706 q 496 753 451 729 q 494 732 494 743 q 494 709 494 722 q 493 681 493 696 q 494 628 493 656 q 499 573 496 600 q 510 523 503 546 q 528 485 517 500 l 350 389 q 343 415 346 400 q 338 445 340 428 q 336 483 336 463 q 337 503 336 493 q 339 524 338 513 q 290 514 317 519 q 235 506 267 510 q 165 497 203 501 l 246 493 q 272 300 257 383 q 303 160 288 217 q 339 46 319 93 q 256 15 301 35 q 172 -26 211 -6 q 81 -78 126 -50 q 44 221 54 78 q 32 492 33 364 l 21 492 l -3 493 l -14 493 q -10 528 -11 510 q -6 564 -7 543 q -4 607 -4 585 q -6 651 -4 629 q -14 693 -8 674 l 35 693 z "},"G":{"ha":632,"x_min":-3,"x_max":625,"o":"m 447 622 q 444 673 447 638 q 430 744 440 708 q 400 808 419 781 q 347 836 381 836 q 283 808 310 836 q 238 736 256 781 q 211 634 219 692 q 203 518 203 576 q 210 409 203 463 q 231 314 218 356 q 265 247 244 272 q 310 221 285 221 q 349 233 333 221 q 372 261 364 244 q 384 297 381 278 q 388 332 388 317 l 321 332 q 322 376 322 353 q 324 424 324 396 l 324 522 q 322 565 324 544 l 625 528 q 622 497 624 514 q 620 465 621 483 q 619 424 619 446 q 621 378 619 401 q 625 332 622 356 l 503 332 l 574 314 l 574 300 q 571 250 574 283 q 559 177 568 217 q 531 96 550 138 q 480 19 513 54 q 399 -37 447 -15 q 281 -58 350 -58 q 160 -6 213 -58 q 71 133 107 47 q 16 327 35 218 q -3 549 -3 436 q 15 757 -3 656 q 71 937 33 858 q 165 1063 108 1015 q 301 1111 222 1111 q 375 1092 344 1111 q 429 1043 406 1072 l 426 1106 l 625 1111 l 606 629 l 447 622 z "},"H":{"ha":724,"x_min":-15,"x_max":732,"o":"m 317 1113 q 301 915 307 1011 q 289 726 294 818 q 363 736 325 732 q 439 746 401 740 q 437 944 439 850 q 429 1113 435 1039 l 647 1081 q 656 993 651 1042 q 663 896 658 953 q 672 772 668 839 q 704 775 689 774 q 732 776 719 776 l 732 554 l 596 547 l 686 539 q 690 408 689 474 q 692 279 692 343 q 692 219 692 249 q 690 163 692 190 l 429 43 q 432 192 431 113 q 435 350 435 261 q 438 539 436 439 l 210 528 l 279 510 q 274 303 275 397 q 272 133 272 208 q 273 44 272 83 q 274 -22 274 6 q 275 -78 274 -54 l 8 18 q 21 268 14 140 q 38 518 28 396 l 13 517 l -15 681 l 51 692 q 65 840 58 772 q 75 956 71 907 q 86 1060 81 1014 l 317 1113 z "},"I":{"ha":408,"x_min":-1,"x_max":415,"o":"m 415 1113 q 408 1049 410 1081 q 407 988 407 1018 q 408 931 407 957 q 411 885 410 904 q 415 843 413 863 l 229 835 l 321 819 q 313 577 315 682 q 311 390 311 472 q 311 323 311 354 q 313 264 311 292 l 397 281 q 390 217 392 249 q 389 156 389 186 q 390 99 389 125 q 393 53 392 72 q 397 10 394 29 l 17 -8 q 21 25 19 4 q 22 69 22 46 q 22 118 22 93 q 19 163 21 143 q 17 208 18 186 l 64 217 q 80 620 74 465 q 89 829 86 775 l -1 825 q 7 944 7 896 q 3 1017 7 994 q -1 1042 1 1032 l 415 1113 z "},"J":{"ha":575,"x_min":3,"x_max":574,"o":"m 3 993 q 232 1049 122 1024 q 326 1070 278 1060 q 421 1089 375 1081 q 506 1103 467 1097 q 574 1111 546 1110 l 574 838 l 389 822 l 481 813 q 517 656 501 738 q 542 498 531 585 q 553 322 553 411 q 541 172 553 244 q 499 44 529 100 q 418 -44 469 -11 q 289 -78 367 -78 q 201 -55 239 -78 q 133 6 163 -32 q 82 92 103 43 q 46 190 61 140 q 3 457 13 307 l 244 569 q 239 506 242 539 q 235 440 236 476 q 233 368 233 404 q 235 306 233 336 q 242 251 238 275 q 253 214 246 228 q 272 200 261 200 q 305 252 296 200 q 314 382 314 304 q 310 506 314 440 q 301 631 307 571 q 290 740 296 692 q 282 814 285 789 l 24 793 l 3 993 z "},"K":{"ha":651,"x_min":1,"x_max":651,"o":"m 633 1054 q 639 1018 636 1038 q 642 978 640 1001 q 643 926 643 954 q 638 834 643 883 q 617 737 632 785 q 576 644 603 689 q 507 568 549 600 q 564 524 538 551 q 610 452 590 496 q 640 348 629 408 q 651 206 651 288 q 651 160 651 183 q 649 111 651 136 l 371 43 q 388 115 381 78 q 399 188 394 147 q 404 271 404 229 q 399 344 404 308 q 378 406 393 379 q 340 449 364 433 q 278 465 315 465 q 263 465 271 465 q 246 463 254 465 q 251 241 247 340 q 258 71 254 142 q 269 -78 264 -12 l 1 18 q 9 197 6 106 q 16 377 13 288 q 23 552 19 467 q 29 714 26 638 q 43 1060 36 892 l 274 1113 q 255 851 261 978 q 246 608 249 725 q 294 642 268 621 q 344 699 321 664 q 383 783 367 733 q 399 900 399 833 q 390 997 399 944 q 363 1113 382 1050 l 633 1054 z "},"L":{"ha":558,"x_min":-29,"x_max":567,"o":"m 301 1054 q 303 1026 303 1040 q 303 997 303 1013 q 300 885 303 944 q 292 763 297 825 q 279 641 286 701 q 265 525 272 581 q 228 267 249 396 q 247 274 231 269 q 288 285 264 279 q 342 300 313 292 q 403 317 372 308 q 567 360 476 336 l 567 71 q 468 58 519 67 q 366 39 417 50 q 267 15 315 28 q 174 -11 218 1 q -29 -78 69 -42 q 1 79 -11 -10 q 21 267 14 168 q 31 469 28 365 q 33 668 33 572 q 32 840 33 760 q 28 982 31 921 q 22 1111 25 1051 l 301 1054 z "},"M":{"ha":839,"x_min":6,"x_max":840,"o":"m 436 625 l 554 1111 l 771 1054 q 791 939 782 1006 q 807 797 800 872 q 819 640 814 721 q 828 483 824 560 q 840 110 836 304 l 604 43 l 604 58 l 606 89 q 603 372 606 232 q 592 656 600 513 l 517 122 l 338 149 l 274 682 q 268 535 269 607 q 267 396 267 463 q 270 206 267 292 q 276 56 274 119 q 286 -78 281 -18 l 6 43 q 15 492 6 303 q 36 807 25 681 q 65 1054 49 954 l 356 1113 l 436 625 z "},"N":{"ha":694,"x_min":14,"x_max":683,"o":"m 294 1111 q 335 985 315 1051 q 372 851 354 918 q 406 718 390 783 q 435 593 422 653 q 492 318 465 454 q 483 588 492 449 q 464 844 475 726 q 436 1113 451 982 l 665 1050 q 679 886 675 968 q 683 724 683 804 q 676 484 683 597 q 660 285 669 371 q 636 97 650 183 q 565 81 607 90 q 478 58 531 71 q 356 26 426 46 q 321 301 340 174 q 283 524 301 428 q 242 728 263 635 l 242 681 q 249 385 242 522 q 267 143 257 247 q 292 -78 278 24 l 35 6 q 19 260 24 140 q 14 483 14 379 q 20 726 14 621 q 33 906 26 832 q 51 1057 40 993 l 294 1111 z "},"O":{"ha":590,"x_min":-10,"x_max":592,"o":"m 281 1113 q 423 1070 364 1113 q 519 958 482 1028 q 574 796 557 888 q 592 606 592 704 q 571 381 592 493 q 512 179 550 268 q 420 35 474 90 q 303 -21 367 -21 q 198 6 242 -21 q 124 77 154 33 q 76 176 94 121 q 49 287 58 231 q 36 395 39 343 q 33 483 33 447 l 33 519 l -10 528 q 3 727 -10 624 q 48 916 15 831 q 137 1057 81 1001 q 281 1113 193 1113 m 219 458 q 229 325 222 383 q 237 276 232 300 q 247 233 242 251 q 260 202 253 214 q 278 190 268 190 q 316 230 299 190 q 345 332 333 269 q 364 472 357 394 q 371 624 371 549 q 367 728 371 678 q 354 815 363 778 q 333 875 346 853 q 303 897 321 897 q 278 878 288 897 q 263 830 268 860 q 255 761 257 800 q 253 682 253 722 q 254 606 253 643 q 258 540 256 569 q 263 476 260 507 l 129 501 l 219 458 z "},"P":{"ha":592,"x_min":0,"x_max":596,"o":"m 0 1054 q 97 1083 46 1069 q 197 1103 142 1094 q 311 1111 253 1111 q 429 1086 376 1111 q 519 1017 482 1061 q 576 915 556 974 q 596 789 596 857 q 577 656 596 725 q 518 519 558 588 q 416 385 478 450 q 267 264 354 321 q 276 163 272 210 q 285 82 281 117 q 293 8 289 42 l 0 -93 q 56 476 38 246 q 81 807 74 707 q 38 783 53 794 q 21 774 28 778 l 0 1054 m 256 833 q 248 760 250 801 q 246 669 246 718 q 249 547 246 611 q 256 417 251 482 q 294 469 275 439 q 329 540 314 500 q 355 627 344 579 q 365 732 365 675 q 333 831 365 804 q 257 858 301 858 q 190 850 224 858 l 256 833 z "},"Q":{"ha":593,"x_min":-10,"x_max":592,"o":"m 281 1113 q 423 1070 364 1113 q 519 958 482 1028 q 574 796 557 888 q 592 606 592 704 q 569 370 592 486 q 504 163 546 254 l 592 67 q 522 13 557 40 q 462 -40 494 -11 q 406 -93 429 -68 q 391 -49 399 -72 q 374 -3 383 -26 q 303 -21 342 -21 q 198 6 242 -21 q 124 77 154 33 q 76 176 94 121 q 49 287 58 231 q 36 395 39 343 q 33 483 33 447 l 33 519 l -10 528 q 3 727 -10 624 q 48 916 15 831 q 137 1057 81 1001 q 281 1113 193 1113 m 346 336 q 364 474 357 399 q 371 624 371 550 q 367 728 371 678 q 354 815 363 778 q 333 875 346 853 q 303 897 321 897 q 278 878 288 897 q 263 830 268 860 q 255 761 257 800 q 253 682 253 722 q 254 606 253 643 q 258 540 256 569 q 263 476 260 507 l 129 501 l 219 458 q 229 325 222 383 q 237 276 232 300 q 247 233 242 251 q 260 202 253 214 q 278 190 268 190 q 290 194 285 190 q 269 243 279 221 q 251 281 258 265 q 236 314 243 299 l 318 368 l 346 336 z "},"R":{"ha":594,"x_min":0,"x_max":597,"o":"m 0 1054 q 97 1083 46 1069 q 197 1103 142 1094 q 311 1111 253 1111 q 429 1086 376 1111 q 519 1019 482 1061 q 577 919 557 976 q 597 797 597 863 q 583 689 597 744 q 539 578 569 633 q 463 470 508 522 q 351 372 417 418 l 596 307 l 500 51 l 274 193 q 281 119 278 153 q 288 60 285 85 q 293 8 290 32 l 0 -93 q 56 476 38 246 q 81 807 74 707 q 38 783 53 794 q 21 774 28 778 l 0 1054 m 256 833 q 248 760 250 801 q 246 669 246 718 q 248 569 246 621 q 253 464 250 517 q 292 510 272 483 q 328 569 313 536 q 355 643 344 603 q 365 732 365 683 q 333 831 365 804 q 257 858 301 858 q 190 850 224 858 l 256 833 z "},"S":{"ha":540,"x_min":0,"x_max":539,"o":"m 276 1111 q 376 1088 335 1111 q 447 1028 418 1065 q 494 942 476 990 q 522 842 513 893 q 535 741 532 792 q 539 650 539 690 q 538 608 539 626 q 538 575 538 589 q 535 546 536 558 l 339 467 q 340 496 340 479 q 342 528 342 510 q 342 567 342 546 q 340 656 342 608 q 331 744 338 703 q 311 812 324 785 q 278 839 299 839 q 230 810 249 839 q 199 735 211 781 q 183 635 188 690 q 178 528 178 581 q 204 459 178 478 q 271 434 231 440 q 357 428 311 428 q 443 416 403 428 q 510 372 483 404 q 536 271 536 339 q 500 134 536 200 q 408 17 464 68 q 287 -63 353 -33 q 161 -93 221 -93 q 148 -72 157 -87 q 127 -33 139 -56 q 102 15 115 -11 q 76 68 89 42 q 11 204 46 129 q 127 188 78 193 q 210 183 176 183 q 262 187 242 183 q 293 196 282 190 q 308 208 304 201 q 313 222 313 215 q 308 239 313 233 q 304 246 307 243 q 153 283 219 250 q 80 335 115 303 q 22 419 44 368 q 0 546 0 471 q 2 640 0 583 q 12 759 4 696 q 37 885 19 822 q 85 998 54 947 q 163 1080 115 1049 q 276 1111 210 1111 z "},"T":{"ha":657,"x_min":-11,"x_max":668,"o":"m -11 1031 q 247 1067 122 1050 q 358 1081 301 1074 q 471 1095 415 1089 q 577 1106 526 1101 q 668 1111 628 1110 l 668 838 l 353 817 l 442 803 q 434 558 436 667 q 432 361 432 449 q 433 248 432 299 q 435 157 433 197 l 499 164 q 494 38 494 92 q 495 -10 494 11 q 497 -44 496 -31 q 499 -74 497 -61 l 118 -93 q 122 -60 121 -81 q 124 -15 124 -39 q 123 33 124 8 q 121 78 122 58 q 118 124 119 101 l 185 131 q 194 368 190 258 q 201 565 199 478 q 206 713 204 651 q 210 807 208 775 l 1 793 l -11 1031 z "},"U":{"ha":704,"x_min":7,"x_max":697,"o":"m 342 1054 q 301 844 318 950 q 286 750 293 800 q 273 649 279 700 q 263 548 267 599 q 260 451 260 497 q 264 364 260 404 q 278 294 268 324 q 306 249 289 265 q 347 232 322 232 q 396 258 376 232 q 426 329 415 285 q 442 433 438 374 q 447 556 447 492 q 441 731 447 643 q 428 892 435 819 q 408 1054 419 975 l 643 1111 q 671 949 658 1035 q 689 781 681 875 q 697 586 697 688 q 683 367 697 475 q 630 172 668 258 q 525 33 592 86 q 354 -21 458 -21 q 181 31 249 -21 q 75 167 114 83 q 22 358 36 251 q 7 575 7 465 q 16 774 7 678 q 36 946 25 871 q 65 1111 49 1033 l 342 1054 z "},"V":{"ha":661,"x_min":-8,"x_max":679,"o":"m 133 -14 q 117 70 126 11 q 95 209 107 129 q 72 383 83 289 q 49 572 60 478 q -8 1060 21 793 l 260 1111 q 256 1029 256 1082 q 258 915 256 979 q 264 779 260 851 q 274 631 268 707 q 285 485 279 556 q 313 139 297 318 q 328 213 319 160 q 345 338 336 265 q 363 495 354 410 q 381 667 372 581 q 421 1111 400 868 l 679 964 q 649 785 667 876 q 610 602 631 693 q 567 425 589 511 q 524 261 544 339 q 419 -92 474 81 l 414 -92 l 404 -93 q 265 -71 338 -93 q 133 -14 192 -49 z "},"W":{"ha":1035,"x_min":-8,"x_max":1053,"o":"m 508 -14 q 490 75 500 14 q 471 215 481 136 q 450 90 460 147 q 433 -7 440 33 q 419 -92 426 -54 l 414 -92 l 404 -93 q 265 -71 338 -93 q 133 -14 192 -49 q 117 70 126 11 q 95 209 107 129 q 72 383 83 289 q 49 572 60 478 q -8 1060 21 793 l 260 1111 q 256 1029 256 1082 q 258 915 256 979 q 264 779 260 851 q 274 631 268 707 q 285 485 279 556 q 313 139 297 318 q 327 203 319 160 q 342 305 335 247 q 358 428 350 363 q 371 560 365 494 q 401 897 386 714 l 635 885 q 632 851 632 869 q 632 811 632 833 q 636 684 632 756 q 647 538 640 613 q 660 392 653 464 q 688 139 672 268 q 703 213 694 160 q 720 338 711 265 q 738 495 729 410 q 756 667 747 581 q 796 1111 775 868 l 1053 964 q 1022 785 1040 876 q 983 602 1004 693 q 940 425 963 511 q 897 261 918 339 q 794 -92 849 81 l 789 -92 l 779 -93 q 640 -71 713 -93 q 508 -14 567 -49 z "},"X":{"ha":686,"x_min":-25,"x_max":717,"o":"m 219 1111 q 283 915 247 1011 q 357 731 318 819 l 565 1111 q 609 1073 583 1092 q 658 1039 635 1054 q 717 1004 686 1021 q 676 933 701 982 q 617 815 650 883 q 546 667 583 747 q 468 500 508 586 q 561 331 517 407 q 640 201 606 256 q 717 88 682 138 l 514 -21 q 411 145 465 57 q 303 324 357 233 l 338 217 q 278 85 306 146 q 231 -19 251 25 q 188 -115 207 -72 q 131 -70 167 -96 q 61 -21 96 -44 q -25 36 19 7 l 214 471 q 122 627 165 554 q 44 756 78 700 q -25 875 7 821 q -2 897 -17 883 q 31 929 13 911 q 71 968 50 947 q 113 1008 92 989 q 219 1111 163 1056 z "},"Y":{"ha":694,"x_min":3,"x_max":693,"o":"m 338 1074 q 296 935 314 1004 q 267 806 281 875 q 254 674 254 736 q 274 569 254 611 q 343 526 293 526 q 392 544 372 526 q 422 591 411 561 q 438 660 433 621 q 443 743 443 700 q 437 860 443 801 q 424 965 431 918 q 404 1074 415 1022 l 639 1111 q 667 1004 654 1061 q 685 893 676 956 q 693 763 693 831 q 675 601 693 675 q 616 473 657 526 q 509 389 575 419 q 346 358 443 358 l 338 360 l 333 360 q 373 352 353 356 q 417 349 393 349 q 435 349 426 349 q 454 351 444 350 q 450 207 450 272 q 454 78 450 133 q 463 -14 458 24 q 475 -87 468 -57 l 207 -26 q 223 235 218 138 q 231 374 228 333 q 119 432 163 393 q 49 522 75 471 q 13 633 24 574 q 3 754 3 693 q 12 888 3 824 q 32 1001 21 951 q 61 1111 44 1060 l 338 1074 z "},"Z":{"ha":614,"x_min":-10,"x_max":621,"o":"m 58 1111 q 226 1100 143 1104 q 299 1095 261 1097 q 375 1091 338 1093 q 447 1088 413 1089 q 511 1088 482 1088 l 538 1088 q 563 1032 549 1061 q 589 976 574 1007 q 621 915 604 946 l 261 190 q 369 229 311 208 q 485 270 419 247 q 621 317 550 293 q 619 276 619 299 q 617 232 618 257 q 617 179 617 207 q 621 65 617 119 q 465 22 547 46 q 304 -26 394 3 q 117 -87 214 -54 q 68 -8 92 -44 q 26 53 47 24 q -10 94 6 83 l 371 882 l -10 826 q 13 932 0 881 q 34 1026 22 976 q 58 1111 46 1075 z "},"[":{"ha":397,"x_min":13,"x_max":390,"o":"m 361 935 l 178 907 l 176 -81 l 372 -89 l 390 -235 l 33 -272 l 13 1100 l 390 1086 l 361 935 z "},"\\":{"ha":747,"x_min":-19,"x_max":767,"o":"m 188 1074 q 390 669 288 864 q 481 500 433 588 q 578 329 529 413 q 675 172 626 246 q 767 40 724 97 l 539 -58 q 375 279 464 100 q 292 444 338 356 q 197 628 247 532 q 93 826 147 724 q -19 1032 39 928 l 188 1074 z "},"]":{"ha":397,"x_min":6,"x_max":383,"o":"m 36 -106 l 218 -79 l 219 908 l 24 917 l 6 1063 l 363 1100 l 383 -272 l 6 -257 l 36 -106 z "},"^":{"ha":514,"x_min":11,"x_max":503,"o":"m 257 1156 q 366 1129 326 1156 q 430 1061 406 1103 q 469 969 454 1019 q 503 872 483 919 l 306 872 l 257 1064 l 210 872 l 11 872 q 45 969 31 919 q 84 1061 60 1019 q 148 1129 108 1103 q 257 1156 188 1156 z "},"_":{"ha":751,"x_min":14,"x_max":732,"o":"m 14 -21 q 296 3 161 -8 q 415 12 354 7 q 534 21 476 17 q 643 28 592 25 q 732 32 694 31 l 732 -204 l 43 -194 l 14 -21 z "},"a":{"ha":678,"x_min":-22,"x_max":683,"o":"m -22 493 q 11 499 -7 496 q 49 505 26 501 q 99 513 71 508 q 154 680 126 601 q 204 818 182 758 q 256 947 231 888 l 276 947 q 370 937 325 947 q 449 914 415 926 q 524 879 489 899 q 561 749 543 826 q 597 585 579 672 q 644 589 622 588 q 683 592 665 590 l 683 363 l 526 354 l 643 342 q 660 248 653 290 q 672 174 667 206 q 683 107 678 136 l 415 63 q 419 128 419 88 q 416 228 419 172 q 407 347 413 285 l 207 336 l 279 325 q 266 168 271 243 q 258 35 261 93 q 254 -93 256 -33 l -4 35 q 13 176 0 101 q 46 328 26 251 l 4 325 l -22 493 m 385 557 q 376 632 381 597 q 369 693 372 667 q 363 747 365 722 q 333 655 346 706 q 310 546 321 604 q 317 547 314 547 l 322 547 q 329 549 325 547 l 367 554 q 374 556 369 556 l 378 556 q 385 557 382 556 z "},"b":{"ha":628,"x_min":0,"x_max":646,"o":"m 0 897 q 97 922 46 911 q 197 940 142 932 q 311 947 253 947 q 435 933 382 947 q 524 894 488 919 q 578 837 560 869 q 596 767 596 804 q 551 644 596 708 q 414 525 506 581 q 425 526 419 526 q 440 528 432 528 q 457 528 447 528 q 515 522 482 528 q 576 496 547 515 q 626 439 606 476 q 646 339 646 401 q 623 245 646 286 q 565 174 600 204 q 490 124 531 144 q 333 65 421 86 l 272 167 q 281 98 276 129 q 288 43 285 67 q 293 -6 290 17 l 0 -93 q 56 394 36 194 q 81 681 75 593 q 56 671 67 675 q 38 663 44 667 q 21 656 28 658 l 0 897 m 256 708 q 248 644 250 681 q 246 567 246 608 l 246 518 q 286 567 265 540 q 324 622 307 594 q 353 674 342 649 q 365 721 365 700 q 324 746 365 746 q 265 739 299 746 q 196 721 232 732 l 256 708 m 253 385 q 256 350 256 367 l 257 326 q 260 292 258 310 q 313 299 285 294 q 367 313 342 303 q 408 336 392 322 q 424 371 424 350 q 408 401 424 392 q 369 410 393 410 q 310 401 342 410 q 253 385 278 393 z "},"c":{"ha":611,"x_min":-1,"x_max":610,"o":"m 331 710 q 270 690 296 710 q 228 637 244 669 q 205 562 213 604 q 197 474 197 519 q 206 377 197 425 q 229 292 214 329 q 266 231 244 254 q 314 208 288 208 q 357 230 342 208 q 381 281 372 251 q 391 342 389 311 q 393 393 393 374 l 393 413 l 608 321 q 557 146 594 222 q 518 81 540 113 q 465 24 496 49 q 393 -15 433 0 q 303 -31 353 -31 q 176 17 232 -31 q 80 143 119 65 q 19 318 40 221 q -1 513 -1 415 q 15 676 -1 597 q 67 815 32 754 q 156 911 101 875 q 285 947 210 947 q 359 931 328 947 q 414 889 390 914 l 411 943 l 610 947 l 590 531 l 432 525 q 428 569 432 539 q 413 631 424 600 q 383 686 403 663 q 331 710 364 710 z "},"d":{"ha":633,"x_min":-8,"x_max":636,"o":"m -8 897 q 89 922 38 911 q 189 940 133 932 q 303 947 244 947 q 453 913 390 947 q 557 823 517 879 q 617 694 597 767 q 636 544 636 622 q 614 374 636 458 q 550 222 592 289 q 449 111 508 154 q 317 65 390 68 q 321 37 319 50 q 324 14 322 24 q 326 -6 325 3 l 33 -93 q 79 391 69 193 q 89 678 89 589 l 89 694 q 58 681 72 688 q 35 668 44 674 q 13 656 22 661 l -8 897 m 288 708 q 281 644 282 681 q 279 567 279 608 q 285 408 279 492 q 297 247 290 325 q 331 265 313 251 q 366 313 350 279 q 393 403 382 346 q 404 550 404 460 q 392 640 404 604 q 360 696 381 675 q 313 726 340 717 q 256 735 286 735 q 185 726 221 735 l 288 708 z "},"e":{"ha":588,"x_min":3,"x_max":599,"o":"m 479 438 q 422 442 457 442 q 313 434 374 442 q 196 417 253 426 l 279 417 q 273 339 276 375 q 267 276 269 303 q 260 218 264 244 q 278 224 263 219 q 315 234 293 228 q 363 248 336 240 q 418 263 390 256 q 565 300 483 279 l 599 58 q 500 48 551 56 q 398 30 449 40 q 299 8 347 19 q 206 -17 250 -4 q 3 -79 101 -46 q 31 28 19 -29 q 51 147 43 86 q 65 271 60 208 q 74 393 71 333 q 58 390 65 390 q 46 388 51 389 q 36 385 40 386 l 36 389 q 31 431 36 403 q 19 489 26 460 q 3 563 13 524 q 79 579 39 571 l 79 617 q 78 672 79 647 q 78 717 78 697 q 33 713 47 714 q 17 711 24 713 l 17 722 q 15 772 17 742 q 10 829 13 801 q 3 900 7 863 q 109 919 49 911 q 233 933 169 928 q 360 940 297 938 q 474 945 424 943 q 558 947 525 947 l 599 947 l 554 683 q 378 713 467 706 q 214 721 289 721 l 206 721 l 283 696 q 285 653 285 674 q 285 611 285 632 q 374 623 332 618 q 447 631 415 628 q 517 638 485 635 l 479 438 z "},"f":{"ha":554,"x_min":-14,"x_max":611,"o":"m 35 586 q 47 736 39 669 q 63 850 54 803 q 81 947 71 904 q 128 950 101 949 q 181 952 150 951 q 247 953 211 953 q 427 947 329 953 q 611 921 525 940 q 578 842 592 885 q 558 763 565 799 q 546 678 550 719 q 457 708 503 694 q 370 728 418 719 q 275 738 322 738 q 257 738 265 738 q 239 736 249 738 q 237 677 238 706 q 236 621 236 649 l 236 592 q 381 608 310 597 q 496 638 451 618 q 494 619 494 629 q 494 600 494 611 q 493 575 493 589 q 494 530 493 554 q 499 483 496 506 q 510 440 503 460 q 528 407 517 419 l 350 322 q 343 346 346 333 q 338 372 340 357 q 336 406 336 388 q 337 422 336 414 q 339 440 338 431 q 290 432 317 436 q 235 425 267 429 q 165 418 203 421 l 246 414 q 272 246 257 318 q 303 125 288 174 q 339 26 319 68 q 256 0 301 18 q 172 -35 211 -18 q 81 -79 126 -56 q 44 179 54 56 q 32 413 33 303 l -14 413 q -10 443 -11 426 q -6 476 -7 458 q -4 513 -4 493 q -14 586 -4 556 l 35 586 z "},"g":{"ha":632,"x_min":-3,"x_max":625,"o":"m 447 525 q 444 569 447 539 q 430 631 440 600 q 400 686 419 663 q 347 710 381 710 q 283 686 310 710 q 238 624 256 663 q 211 535 219 585 q 203 435 203 486 q 210 340 203 386 q 231 258 218 294 q 265 200 244 222 q 310 178 285 178 q 349 188 333 178 q 372 213 364 199 q 384 244 381 228 q 388 274 388 261 l 321 274 q 322 313 322 292 q 324 353 324 329 l 324 439 q 322 475 324 457 l 625 443 q 622 417 624 431 q 620 388 621 404 q 619 353 619 372 q 621 313 619 333 q 625 274 622 293 l 503 274 l 574 260 l 574 247 q 571 204 574 233 q 559 140 568 175 q 531 69 550 106 q 480 3 513 33 q 399 -45 447 -26 q 281 -64 350 -64 q 160 -18 213 -64 q 71 101 107 28 q 16 269 35 175 q -3 461 -3 364 q 15 640 -3 553 q 71 796 33 728 q 165 906 108 864 q 301 947 222 947 q 375 931 344 947 q 429 889 406 914 l 426 943 l 625 947 l 606 531 l 447 525 z "},"h":{"ha":724,"x_min":-15,"x_max":732,"o":"m 647 922 q 656 847 651 889 q 663 763 658 811 q 672 656 668 714 q 704 658 689 657 q 732 658 719 658 l 732 465 l 596 460 l 686 453 q 690 340 689 396 q 692 228 692 283 q 692 176 692 201 q 690 128 692 151 l 429 24 q 432 153 431 83 q 435 290 435 213 q 438 453 436 367 l 210 443 l 279 428 q 274 249 275 331 q 272 103 272 167 q 273 26 272 60 q 274 -32 274 -8 q 275 -79 274 -58 l 8 3 q 21 221 14 110 q 38 436 28 332 l 13 435 l -15 575 q 3 578 -8 576 q 24 581 11 579 q 51 585 36 582 q 65 713 58 656 q 75 813 71 771 q 86 903 81 863 l 317 949 q 301 778 307 861 q 289 615 294 694 q 363 624 325 619 q 439 632 401 628 q 437 803 439 722 q 429 949 435 885 l 647 922 z "},"i":{"ha":408,"x_min":-1,"x_max":415,"o":"m 415 949 q 408 894 410 921 q 407 842 407 868 q 408 792 407 815 q 411 753 410 769 q 415 715 413 732 l 229 708 l 321 696 q 313 486 315 578 q 311 324 311 394 q 311 265 311 292 q 313 215 311 239 l 397 229 q 390 174 392 201 q 389 121 389 147 q 390 72 389 94 q 393 32 392 50 q 397 -4 394 13 l 17 -19 q 21 9 19 -8 q 22 47 22 26 q 22 90 22 68 q 19 129 21 111 q 17 168 18 149 l 64 175 q 80 523 74 390 q 89 703 86 656 l -1 700 q 7 803 7 763 q 3 867 7 844 q -1 888 1 879 l 415 949 z "},"j":{"ha":575,"x_min":3,"x_max":574,"o":"m 3 846 q 232 893 122 872 q 326 912 278 903 q 421 928 375 921 q 506 940 467 935 q 574 947 546 946 l 574 711 l 389 699 l 481 689 q 517 554 501 625 q 542 419 531 494 q 553 267 553 344 q 541 138 553 200 q 499 27 529 75 q 418 -50 469 -21 q 289 -79 367 -79 q 201 -59 239 -79 q 133 -7 163 -39 q 82 67 103 25 q 46 151 61 108 q 3 382 13 253 l 244 481 q 239 425 242 454 q 235 369 236 400 q 233 306 233 338 q 235 251 233 278 q 242 205 238 225 q 253 173 246 185 q 272 161 261 161 q 305 206 296 161 q 314 317 314 250 q 310 424 314 367 q 301 533 307 481 q 290 626 296 585 q 282 690 285 668 l 24 672 l 3 846 z "},"k":{"ha":651,"x_min":1,"x_max":651,"o":"m 633 899 q 639 868 636 885 q 642 833 640 853 q 643 789 643 813 q 638 709 643 751 q 617 624 632 667 q 576 544 603 582 q 507 478 549 506 q 564 440 538 464 q 610 378 590 415 q 640 288 629 340 q 651 165 651 236 q 651 126 651 146 q 649 83 651 106 l 371 24 q 388 86 381 53 q 399 149 394 114 q 404 221 404 185 q 399 283 404 253 q 378 338 393 314 q 340 376 364 361 q 278 390 315 390 q 263 390 271 390 q 246 388 254 389 q 251 197 247 282 q 258 49 254 111 q 269 -79 264 -22 l 1 3 q 9 157 6 78 q 16 313 13 236 q 23 465 19 390 q 29 604 26 539 q 43 903 36 757 l 274 949 q 255 722 261 831 q 246 514 249 614 q 294 544 268 525 q 344 592 321 563 q 383 665 367 622 q 399 765 399 707 q 390 849 399 804 q 363 949 382 894 l 633 899 z "},"l":{"ha":560,"x_min":-29,"x_max":567,"o":"m 301 899 q 303 875 303 888 q 303 849 303 863 q 300 751 303 803 q 292 647 297 700 q 279 541 286 593 q 265 442 272 489 q 228 218 249 329 q 247 224 231 219 q 288 234 264 228 q 342 247 313 240 q 403 261 372 254 q 567 299 476 278 l 567 49 q 366 22 471 42 q 174 -22 261 1 q -29 -79 69 -49 q 1 56 -11 -21 q 21 219 14 133 q 31 393 28 304 q 33 565 33 482 q 32 714 33 644 q 28 836 31 783 q 22 947 25 896 l 301 899 z "},"m":{"ha":839,"x_min":6,"x_max":840,"o":"m 436 528 l 554 947 l 771 899 q 791 798 782 856 q 807 675 800 740 q 819 540 814 610 q 828 406 824 471 q 840 82 836 250 l 604 24 l 604 38 l 606 64 q 603 308 606 186 q 592 553 600 431 l 517 93 l 338 117 l 274 576 q 268 449 269 510 q 267 329 267 388 q 270 165 267 240 q 276 36 274 90 q 286 -79 281 -28 l 6 24 q 15 412 6 247 q 36 685 25 576 q 65 899 49 811 l 356 949 l 436 528 z "},"n":{"ha":694,"x_min":14,"x_max":683,"o":"m 294 947 q 335 838 315 896 q 372 722 354 781 q 406 608 390 664 q 435 500 422 551 q 492 263 465 381 q 483 496 492 375 q 464 718 475 617 q 436 949 451 836 l 665 894 q 679 753 675 824 q 683 613 683 682 q 676 406 683 504 q 660 233 669 308 q 636 72 650 147 q 565 57 607 65 q 478 37 531 49 q 356 10 426 25 q 321 247 340 138 q 283 440 301 357 q 242 617 263 536 l 242 575 q 249 319 242 438 q 267 111 257 200 q 292 -79 278 7 l 35 -8 q 19 213 24 110 q 14 406 14 315 q 20 615 14 524 q 33 769 26 707 q 51 900 40 844 l 294 947 z "},"o":{"ha":592,"x_min":-8,"x_max":593,"o":"m 282 949 q 424 912 365 949 q 521 814 483 875 q 576 674 558 753 q 593 510 593 594 q 572 315 593 413 q 513 142 551 218 q 422 17 475 65 q 304 -31 368 -31 q 199 -7 243 -31 q 126 54 156 17 q 78 140 96 92 q 50 236 60 188 q 38 329 40 285 q 35 406 35 374 l 35 436 l -8 444 q 4 617 -8 528 q 49 779 17 706 q 138 901 82 853 q 282 949 194 949 m 221 383 q 231 268 224 318 q 238 225 233 246 q 249 188 243 204 q 262 161 254 171 q 279 151 269 151 q 317 186 300 151 q 347 275 335 221 q 365 396 358 329 q 372 526 372 463 q 368 617 372 574 q 356 692 364 660 q 335 743 347 724 q 304 763 322 763 q 279 747 289 763 q 264 705 269 731 q 256 646 258 679 q 254 578 254 613 q 256 512 254 544 q 260 454 257 479 q 264 399 261 425 l 131 421 l 221 383 z "},"p":{"ha":592,"x_min":0,"x_max":596,"o":"m 0 897 q 97 922 46 911 q 197 940 142 932 q 311 947 253 947 q 429 926 376 947 q 519 867 482 904 q 576 778 556 829 q 596 669 596 728 q 577 554 596 614 q 518 435 558 494 q 416 320 478 376 q 267 215 354 264 q 276 128 272 168 q 285 58 281 88 q 293 -6 289 24 l 0 -93 q 56 399 38 200 q 81 685 74 599 q 56 674 67 679 q 38 664 44 668 q 21 656 28 660 l 0 897 m 256 708 q 248 644 250 681 q 246 567 246 608 q 249 460 246 515 q 256 347 251 404 q 294 393 275 367 q 329 453 314 419 q 355 529 344 488 q 365 621 365 571 q 333 706 365 683 q 257 729 301 729 q 190 721 224 729 l 256 708 z "},"q":{"ha":593,"x_min":-10,"x_max":592,"o":"m 281 949 q 423 912 364 949 q 519 814 482 875 q 574 674 557 753 q 592 510 592 594 q 569 307 592 407 q 504 128 546 207 l 592 44 q 522 -3 557 21 q 462 -47 494 -22 q 406 -93 429 -71 q 374 -14 392 -56 q 303 -31 340 -31 q 198 -7 242 -31 q 124 54 154 17 q 76 140 94 92 q 49 236 58 188 q 36 329 39 285 q 33 406 33 374 l 33 436 l -10 444 q 3 617 -10 528 q 48 779 15 706 q 137 901 81 853 q 281 949 193 949 m 346 278 q 364 397 357 332 q 371 526 371 463 q 367 617 371 574 q 354 692 363 660 q 333 743 346 724 q 303 763 321 763 q 278 747 288 763 q 263 705 268 731 q 255 646 257 679 q 253 578 253 613 q 254 512 253 544 q 258 454 256 479 q 263 399 260 425 l 129 421 l 219 383 q 229 268 222 318 q 237 225 232 246 q 247 188 242 204 q 260 161 253 171 q 278 151 268 151 q 290 156 285 151 q 269 197 279 179 q 251 229 258 215 q 236 258 243 246 l 318 306 l 346 278 z "},"r":{"ha":594,"x_min":0,"x_max":597,"o":"m 0 897 q 97 922 46 911 q 197 940 142 932 q 311 947 253 947 q 429 926 376 947 q 519 867 482 904 q 577 781 557 831 q 597 676 597 732 q 539 486 597 585 q 351 308 481 388 l 596 253 l 501 32 l 274 156 q 281 90 278 119 q 288 40 285 61 q 293 -6 290 14 l 0 -93 q 56 399 38 200 q 81 685 74 599 q 56 674 67 679 q 38 664 44 668 q 21 656 28 660 l 0 897 m 256 708 q 248 644 250 681 q 246 567 246 608 q 248 479 246 525 q 253 388 250 433 q 292 427 272 404 q 328 479 313 450 q 355 544 344 508 q 365 621 365 579 q 333 706 365 683 q 257 729 301 729 q 190 721 224 729 l 256 708 z "},"s":{"ha":540,"x_min":0,"x_max":539,"o":"m 276 949 q 415 906 363 949 q 494 802 467 864 q 531 671 522 740 q 539 549 539 601 q 538 513 539 529 q 538 485 538 496 q 535 460 536 471 l 339 392 q 340 417 340 403 q 342 444 342 428 q 342 478 342 460 q 340 555 342 514 q 331 631 338 596 q 311 689 324 665 q 278 713 299 713 q 230 688 249 713 q 199 623 211 663 q 183 536 188 583 q 178 443 178 489 q 204 384 178 400 q 271 363 231 368 q 357 358 311 358 q 443 347 403 357 q 510 309 483 336 q 536 222 536 282 q 500 103 536 160 q 408 2 464 46 q 287 -67 353 -42 q 161 -93 221 -93 q 127 -41 151 -82 q 76 46 103 0 q 11 164 46 100 q 127 149 78 153 q 210 146 176 146 q 262 149 242 146 q 293 158 282 153 q 308 169 304 163 q 313 181 313 175 q 308 194 313 190 q 304 200 307 197 q 153 232 219 204 q 97 263 124 244 q 48 310 69 282 q 13 374 26 338 q 0 460 0 411 q 2 540 0 492 q 12 644 4 589 q 37 753 19 699 q 85 851 54 807 q 163 922 115 894 q 276 949 210 949 z "},"t":{"ha":658,"x_min":-10,"x_max":669,"o":"m -10 878 q 249 910 124 894 q 360 922 303 917 q 472 933 417 928 q 578 942 528 939 q 669 947 629 946 l 669 711 l 354 693 l 443 682 q 435 469 438 564 q 433 300 433 375 q 435 203 433 247 q 438 124 436 160 l 500 129 q 496 21 496 67 q 497 -21 496 -3 q 499 -51 497 -39 q 500 -76 499 -65 l 119 -93 q 124 -64 122 -82 q 125 -25 125 -46 q 124 17 125 -4 q 122 56 124 39 q 119 94 121 76 l 188 101 q 197 307 193 213 q 204 476 201 401 q 209 604 207 551 q 213 685 211 657 l 3 672 l -10 878 z "},"u":{"ha":703,"x_min":7,"x_max":697,"o":"m 342 899 q 301 718 318 808 q 273 548 286 639 q 260 378 260 457 q 264 303 260 338 q 278 242 268 268 q 306 202 289 217 q 347 188 322 188 q 396 210 376 188 q 426 272 415 233 q 442 360 438 310 q 447 467 447 411 q 441 618 447 542 q 428 757 435 694 q 408 899 419 831 l 643 947 q 671 808 658 882 q 689 663 681 744 q 697 494 697 582 q 683 305 697 399 q 630 136 668 211 q 525 15 592 61 q 354 -31 458 -31 q 181 15 249 -31 q 75 133 114 60 q 22 298 36 206 q 7 485 7 390 q 16 656 7 574 q 36 804 25 739 q 65 947 49 881 l 342 899 z "},"v":{"ha":661,"x_min":-8,"x_max":679,"o":"m 133 -25 q 117 47 126 -4 q 95 168 107 99 q 72 319 83 238 q 49 482 60 400 q -8 904 21 674 l 260 947 q 256 878 256 922 q 258 779 256 835 q 264 661 260 724 q 274 533 268 599 q 285 407 279 468 q 313 107 297 263 q 328 171 319 125 q 345 279 336 217 q 363 415 354 342 q 381 563 372 489 q 421 947 400 738 l 679 819 q 649 665 667 744 q 610 507 631 585 q 567 354 589 429 q 524 213 544 279 q 419 -92 474 57 l 414 -92 l 404 -93 q 265 -74 338 -93 q 133 -25 193 -56 z "},"w":{"ha":1035,"x_min":-8,"x_max":1053,"o":"m 508 -25 q 490 51 500 -1 q 471 172 481 103 q 450 65 460 114 q 433 -18 440 17 l 419 -92 l 414 -92 l 404 -93 q 265 -74 338 -93 q 133 -25 193 -56 q 117 47 126 -4 q 95 168 107 99 q 72 319 83 238 q 49 482 60 400 q -8 904 21 674 l 260 947 q 256 878 256 922 q 258 779 256 835 q 264 661 260 724 q 274 533 268 599 q 285 407 279 468 q 313 107 297 263 q 332 186 322 131 q 351 313 342 242 q 369 460 361 383 q 385 601 378 536 q 396 711 392 667 q 401 761 400 756 l 401 763 q 424 761 413 761 l 438 761 q 460 760 449 761 l 576 754 q 599 753 588 753 l 613 753 q 635 751 624 753 q 632 723 632 739 q 632 688 632 707 q 634 608 632 651 q 640 516 636 564 q 649 419 644 468 q 660 325 654 371 q 688 107 672 218 q 703 171 694 125 q 720 279 711 217 q 738 415 729 342 q 756 563 747 489 q 796 947 775 738 l 1053 819 q 1022 665 1040 744 q 983 507 1004 585 q 940 354 963 429 q 897 213 918 279 q 793 -92 847 57 l 788 -92 l 778 -93 q 640 -74 711 -93 q 508 -25 568 -56 z "},"x":{"ha":688,"x_min":-25,"x_max":718,"o":"m 219 947 q 283 778 247 860 q 357 618 318 696 l 565 947 q 609 915 583 932 q 658 885 635 899 q 718 856 688 869 q 677 793 703 836 q 618 692 651 750 q 547 563 585 633 q 468 419 508 493 q 561 274 517 339 q 640 161 606 208 q 717 63 682 106 l 514 -31 q 411 113 465 36 q 303 267 357 189 l 338 174 q 278 61 306 113 q 231 -31 251 10 q 188 -112 207 -75 q 131 -74 167 -96 q 61 -31 96 -51 q -25 18 19 -7 l 214 394 q 122 530 165 467 q 44 640 78 593 q -25 743 7 696 q -2 763 -17 750 q 31 790 13 775 q 71 824 50 806 q 113 858 92 842 q 219 947 163 900 z "},"y":{"ha":694,"x_min":3,"x_max":693,"o":"m 338 915 q 296 794 314 856 q 267 681 281 742 q 254 568 254 621 q 274 478 254 514 q 343 442 293 442 q 403 468 382 442 q 434 536 425 494 q 443 629 443 578 q 437 730 443 679 q 424 822 431 781 q 404 915 415 869 l 639 947 q 667 854 654 904 q 685 758 676 813 q 693 646 693 704 q 678 519 693 582 q 626 408 664 457 q 521 328 588 358 q 350 297 454 297 l 335 297 q 372 292 353 294 q 413 289 392 289 q 433 290 424 289 q 454 292 443 290 q 450 167 450 224 q 454 56 450 103 q 463 -24 458 8 q 475 -87 468 -61 l 207 -36 q 224 190 218 106 q 232 310 229 275 q 119 360 164 326 q 49 438 75 393 q 13 535 24 483 q 3 640 3 588 q 12 755 3 700 q 32 853 21 810 q 61 947 44 903 l 338 915 z "},"z":{"ha":614,"x_min":-10,"x_max":621,"o":"m 58 947 q 226 938 143 942 q 299 934 261 936 q 375 930 338 932 q 447 927 413 928 q 511 926 482 926 l 538 926 q 563 878 549 903 q 589 831 574 857 q 621 778 604 804 l 261 151 q 369 186 311 168 q 485 221 419 201 q 621 261 550 240 q 619 226 619 244 q 617 188 618 210 q 617 143 617 167 q 621 44 617 93 q 465 8 547 28 q 304 -34 394 -10 q 117 -87 214 -58 q 68 -19 92 -50 q 26 34 47 8 q -10 69 6 60 l 371 749 l -10 701 q 13 792 0 747 q 34 873 22 831 q 58 947 46 915 z "}}}
